<svg xmlns="http://www.w3.org/2000/svg" viewBox="0 0 512 512">
  <defs>
    <linearGradient id="bg" x1="0" y1="0" x2="1" y2="1">
      <stop offset="0%" stop-color="#fb923c"/>
      <stop offset="55%" stop-color="#ea580c"/>
      <stop offset="100%" stop-color="#7c2d12"/>
    </linearGradient>
    <radialGradient id="sheen" cx="38%" cy="30%" r="70%">
      <stop offset="0%" stop-color="#ffffff" stop-opacity="0.35"/>
      <stop offset="55%" stop-color="#ffffff" stop-opacity="0"/>
    </radialGradient>
  </defs>
  <!-- Full-bleed brand background fills the maskable safe area. -->
  <rect width="512" height="512" fill="url(#bg)"/>
  <rect width="512" height="512" fill="url(#sheen)"/>
  <!-- The PetroBrain droplet, centered in the inner safe zone. -->
  <g transform="translate(256 256) scale(4.4) translate(-32 -36)">
    <path d="M32 4 C32 4 11 27 11 41.5 a21 21 0 1 0 42 0 C53 27 32 4 32 4 Z" fill="#ffffff"/>
    <path d="M24 12 C18 22 14.5 31 14.5 39 C14.5 43.5 16.5 46.5 19.5 47.5 C18.5 41 21 31.5 27 21 C28.5 18 26 11 24 12 Z" fill="#ffd9b3" opacity="0.85"/>
  </g>
</svg>
